<?xml version="1.0" encoding="UTF-8" standalone="no"?>
<!-- Created with Inkscape (http://www.inkscape.org/) -->

<svg
   xmlns:dc="http://purl.org/dc/elements/1.1/"
   xmlns:cc="http://creativecommons.org/ns#"
   xmlns:rdf="http://www.w3.org/1999/02/22-rdf-syntax-ns#"
   xmlns:svg="http://www.w3.org/2000/svg"
   xmlns="http://www.w3.org/2000/svg"
   xmlns:sodipodi="http://sodipodi.sourceforge.net/DTD/sodipodi-0.dtd"
   xmlns:inkscape="http://www.inkscape.org/namespaces/inkscape"
   width="50"
   height="50"
   viewBox="0 0 50.000001 50.000001"
   id="svg2"
   version="1.1"
   inkscape:version="0.91 r13725"
   sodipodi:docname="logo2.svg">
  <defs
     id="defs4" />
  <sodipodi:namedview
     id="base"
     pagecolor="#ffffff"
     bordercolor="#666666"
     borderopacity="1.0"
     inkscape:pageopacity="0.0"
     inkscape:pageshadow="2"
     inkscape:zoom="0.25190715"
     inkscape:cx="25.087719"
     inkscape:cy="24.999979"
     inkscape:document-units="px"
     inkscape:current-layer="layer1"
     showgrid="false"
     showguides="true"
     inkscape:guide-bbox="true"
     inkscape:window-width="1280"
     inkscape:window-height="751"
     inkscape:window-x="0"
     inkscape:window-y="0"
     inkscape:window-maximized="1"
     units="px" />
  <metadata
     id="metadata7">
    <rdf:RDF>
      <cc:Work
         rdf:about="">
        <dc:format>image/svg+xml</dc:format>
        <dc:type
           rdf:resource="http://purl.org/dc/dcmitype/StillImage" />
        <dc:title></dc:title>
      </cc:Work>
    </rdf:RDF>
  </metadata>
  <g
     inkscape:label="Layer 1"
     inkscape:groupmode="layer"
     id="layer1"
     transform="translate(0,-1002.3621)">
    <circle
       style="fill:#000000;fill-opacity:1;stroke:none;stroke-width:3.76486611;stroke-linecap:butt;stroke-linejoin:miter;stroke-miterlimit:4;stroke-dasharray:none;stroke-opacity:0.99215686"
       id="path4314"
       cx="25"
       cy="1027.3621"
       r="25" />
    <path
       style="fill:#ffffff"
       d="m 23.88693,1050.4135 c -4.197296,-0.2232 -8.097817,-1.4934 -11.545794,-3.7602 -5.4333954,-3.572 -9.1174261,-9.2696 -10.1252237,-15.6595 -0.588751,-3.7325 -0.2663222,-7.5127 0.9442162,-11.0729 2.641074,-7.7674 9.2986655,-13.6042 17.3202595,-15.1849 3.635398,-0.7164 7.358464,-0.5643 10.888017,0.4448 4.680847,1.3382 8.86467,4.177 11.874313,8.0569 3.558713,4.5878 5.249204,10.3527 4.737876,16.1574 -0.478567,5.4341 -2.83191,10.4584 -6.70687,14.3192 -3.795967,3.7822 -8.734646,6.1054 -14.071886,6.6198 -0.893923,0.086 -2.475153,0.124 -3.314908,0.079 z m 2.01781,-1.8339 c 0.884788,-0.041 1.810363,-0.1355 2.581092,-0.2641 0.473308,-0.079 1.22881,-0.2347 1.252988,-0.2583 0.012,-0.011 -5.445301,-4.754 -12.126701,-10.5389 -6.681493,-5.785 -12.1448804,-10.5263 -12.1410046,-10.5364 0,-0.01 1.7699441,-1.5896 3.9246988,-3.5101 2.1546618,-1.9204 3.9426928,-3.5146 3.9734228,-3.5426 l 0.05537,-0.051 0.544549,0.611 c 0.299543,0.3361 0.573155,0.6422 0.60813,0.6803 l 0.06367,0.069 -3.212568,2.8648 c -2.5152029,2.2429 -3.2054627,2.8714 -3.1796241,2.8953 0.018456,0.017 4.6496561,4.0265 10.2921601,8.9102 5.642504,4.8838 10.433073,9.0313 10.645688,9.2167 l 0.386471,0.337 0,-4.2666 0,-4.2666 -5.671665,-5.058 c -3.119457,-2.782 -5.672495,-5.0653 -5.673326,-5.0742 -9.22e-4,-0.01 2.551378,-2.2949 5.671665,-5.08 l 5.673326,-5.0638 0,-5.0147 0,-5.0147 -0.183454,-0.041 c -0.100863,-0.023 -0.410464,-0.082 -0.68786,-0.1309 -3.153509,-0.5569 -6.450514,-0.3887 -9.518848,0.4854 -2.174318,0.6196 -4.206247,1.5695 -6.092557,2.8483 -1.922392,1.3034 -3.6718497,2.9701 -5.067411,4.8283 -3.3809808,4.5014 -4.8223133,10.0873 -4.0507542,15.6987 0.3152309,2.2927 1.0267152,4.5619 2.0830525,6.6438 2.3622018,4.6555 6.3850867,8.306 11.2393297,10.199 2.714252,1.0585 5.728602,1.5571 8.609883,1.4243 z m 5.977299,-1.1243 c 1.762654,-0.5977 3.469478,-1.4518 5.054861,-2.5296 0.492687,-0.3349 0.869653,-0.6169 0.859872,-0.6431 0,-0.012 -1.181563,-1.069 -2.615605,-2.3484 -1.434042,-1.2794 -2.869746,-2.5608 -3.190421,-2.8476 l -0.58303,-0.5214 0,4.5224 c 0,2.4872 0,4.5223 0.0092,4.5223 0.0092,0 0.214368,-0.069 0.465187,-0.1546 z m 7.940386,-4.8971 c 0.88405,-0.8681 1.52254,-1.5955 2.214645,-2.5232 2.279888,-3.0558 3.697504,-6.6957 4.082591,-10.4826 0.144789,-1.4247 0.144973,-2.9713 3.7e-4,-4.3768 -0.463988,-4.511 -2.347345,-8.7206 -5.411342,-12.0951 -0.429013,-0.4725 -1.272735,-1.3014 -1.740137,-1.7094 l -0.365985,-0.3196 -0.0729,0.058 c -0.03968,0.031 -1.658561,1.4732 -3.596549,3.203 l -3.523739,3.1449 -9.23e-4,9.3318 -9.22e-4,9.3318 3.911041,3.4904 c 2.151156,1.9198 3.919808,3.4906 3.930512,3.4906 0.01107,0 0.26863,-0.2445 0.573248,-0.5436 z m -10.255524,-19.6022 -0.0092,-3.8444 -4.28487,3.8247 c -2.356757,2.1037 -4.290592,3.8341 -4.297605,3.8453 -0.0092,0.011 1.921284,1.7461 4.28487,3.8553 l 4.297605,3.8349 0.0092,-3.8357 c 0,-2.1095 0,-5.5656 0,-7.6801 z m 4.782263,-10.5657 c 1.509713,-1.3475 2.74489,-2.4586 2.74489,-2.4692 0,-0.024 -0.771836,-0.5308 -1.205371,-0.7912 -1.039265,-0.6241 -2.241406,-1.2049 -3.393531,-1.6395 -0.357218,-0.1348 -1.044525,-0.3723 -1.077193,-0.3723 -0.0092,0 -0.01015,1.7761 -0.01015,3.947 l 0,3.9472 0.09828,-0.086 c 0.05352,-0.047 1.333457,-1.1884 2.843169,-2.5359 z"
       id="path4310"
       inkscape:connector-curvature="0" />
  </g>
</svg>
