<?xml version="1.0" encoding="UTF-8" standalone="no"?>
<!-- Created with Inkscape (http://www.inkscape.org/) -->

<svg
   xmlns:dc="http://purl.org/dc/elements/1.1/"
   xmlns:cc="http://creativecommons.org/ns#"
   xmlns:rdf="http://www.w3.org/1999/02/22-rdf-syntax-ns#"
   xmlns:svg="http://www.w3.org/2000/svg"
   xmlns="http://www.w3.org/2000/svg"
   xmlns:sodipodi="http://sodipodi.sourceforge.net/DTD/sodipodi-0.dtd"
   xmlns:inkscape="http://www.inkscape.org/namespaces/inkscape"
   width="50"
   height="50"
   viewBox="0 0 50.000002 50.000002"
   id="svg4188"
   version="1.1"
   inkscape:version="0.91 r13725"
   sodipodi:docname="logo.svg">
  <defs
     id="defs4190" />
  <sodipodi:namedview
     id="base"
     pagecolor="#ffffff"
     bordercolor="#666666"
     borderopacity="1.0"
     inkscape:pageopacity="0.0"
     inkscape:pageshadow="2"
     inkscape:zoom="2.8284271"
     inkscape:cx="25.000126"
     inkscape:cy="25.000116"
     inkscape:document-units="px"
     inkscape:current-layer="layer1"
     showgrid="false"
     units="px"
     inkscape:window-width="1280"
     inkscape:window-height="751"
     inkscape:window-x="0"
     inkscape:window-y="0"
     inkscape:window-maximized="1" />
  <metadata
     id="metadata4193">
    <rdf:RDF>
      <cc:Work
         rdf:about="">
        <dc:format>image/svg+xml</dc:format>
        <dc:type
           rdf:resource="http://purl.org/dc/dcmitype/StillImage" />
        <dc:title />
      </cc:Work>
    </rdf:RDF>
  </metadata>
  <g
     inkscape:label="Layer 1"
     inkscape:groupmode="layer"
     id="layer1"
     transform="translate(0,-1002.3622)">
    <path
       style="fill:#ffffff;fill-opacity:1"
       d="m 15.815703,1009.3717 0,14.8108 0,14.8109 2.311514,0 2.311517,0 0,-3.8526 0,-3.8525 1.091203,0 1.091226,0 1.248386,2.9536 c 0.686472,1.6245 1.423794,3.3581 1.63866,3.8525 l 0.390594,0.899 2.573704,0 2.573373,0 -0.147475,-0.3853 c -0.763027,-1.9904 -3.092054,-7.5474 -3.535165,-8.2873 -0.443107,-0.7399 -1.179337,-1.8669 -2.4727,-2.2135 0,-0.055 1.25568,-1.6149 2.790406,-3.4673 l 3.094726,-3.799 -2.620198,0.01 -2.57703,0 -2.527218,3.368 -2.526884,3.3679 -0.04449,-9.1039 -0.04415,-9.104 -2.310186,0 -2.309831,0 z m -6.3218868,2.0149 a 2.8251842,2.8251842 0 0 0 -2.8251865,2.8252 2.8251842,2.8251842 0 0 0 2.8251865,2.8252 2.8251842,2.8251842 0 0 0 2.8251828,-2.8252 2.8251842,2.8251842 0 0 0 -2.8251828,-2.8252 z m -2.2212284,9.4571 -0.051844,11.0867 c -0.045524,9.7101 -0.085851,11.1611 -0.3250507,11.686 -0.3981301,0.8736 -0.7682425,1.1028 -1.9346343,1.1985 l -1.0427157,0.086 -0.107356,0.7705 c -0.059072,0.4238 -0.1616362,1.2871 -0.2280643,1.9182 l -0.1210588,1.1474 0.5691814,0.1642 c 0.7615989,0.2194 2.81974,0.2336 3.571616,0.025 1.9002193,-0.5749 4.1886156,-2.8835 4.1886156,-5.0524 l 0.0508,-11.5148 0.05118,-11.5147 -2.3105205,0 -2.3101817,0 z"
       id="path3422"
       inkscape:connector-curvature="0"
       inkscape:export-filename="C:\Users\jaksonrochelly\Desktop\favicon.png"
       inkscape:export-xdpi="90"
       inkscape:export-ydpi="90" />
    <rect
       y="1003.1665"
       x="0.80459267"
       height="48.391068"
       width="48.391068"
       id="rect3431"
       style="opacity:1;fill:none;fill-opacity:1;stroke:#ffffff;stroke-width:1.60893309;stroke-miterlimit:4;stroke-dasharray:none;stroke-opacity:1"
       inkscape:export-filename="C:\Users\jaksonrochelly\Desktop\favicon.png"
       inkscape:export-xdpi="90"
       inkscape:export-ydpi="90" />
  </g>
</svg>
