<?xml version="1.0" encoding="UTF-8" standalone="no"?>
<!-- Created with Inkscape (http://www.inkscape.org/) -->

<svg
   xmlns:dc="http://purl.org/dc/elements/1.1/"
   xmlns:cc="http://creativecommons.org/ns#"
   xmlns:rdf="http://www.w3.org/1999/02/22-rdf-syntax-ns#"
   xmlns:svg="http://www.w3.org/2000/svg"
   xmlns="http://www.w3.org/2000/svg"
   xmlns:sodipodi="http://sodipodi.sourceforge.net/DTD/sodipodi-0.dtd"
   xmlns:inkscape="http://www.inkscape.org/namespaces/inkscape"
   width="50"
   height="50"
   viewBox="0 0 50.000001 50.000001"
   id="svg2"
   version="1.1"
   inkscape:version="0.91 r13725"
   sodipodi:docname="logo.svg">
  <defs
     id="defs4" />
  <sodipodi:namedview
     id="base"
     pagecolor="#ffffff"
     bordercolor="#666666"
     borderopacity="1.0"
     inkscape:pageopacity="0.0"
     inkscape:pageshadow="2"
     inkscape:zoom="11.401584"
     inkscape:cx="25"
     inkscape:cy="25.000042"
     inkscape:document-units="px"
     inkscape:current-layer="layer1"
     showgrid="false"
     showguides="true"
     inkscape:guide-bbox="true"
     inkscape:window-width="1280"
     inkscape:window-height="751"
     inkscape:window-x="0"
     inkscape:window-y="0"
     inkscape:window-maximized="1"
     units="px" />
  <metadata
     id="metadata7">
    <rdf:RDF>
      <cc:Work
         rdf:about="">
        <dc:format>image/svg+xml</dc:format>
        <dc:type
           rdf:resource="http://purl.org/dc/dcmitype/StillImage" />
        <dc:title />
      </cc:Work>
    </rdf:RDF>
  </metadata>
  <g
     inkscape:label="Layer 1"
     inkscape:groupmode="layer"
     id="layer1"
     transform="translate(0,-1002.3621)">
    <path
       style="fill:#ffffff"
       d="m 23.793844,1052.3382 c -4.54847,-0.2417 -8.77526,-1.6181 -12.51162,-4.0741 -5.8879198,-3.8703 -9.8800798,-10.0436 -10.9722098,-16.9671 -0.63795,-4.0441 -0.28864,-8.1401 1.02319,-11.9976 2.86203,-8.4159 10.0765498,-14.7401 18.7690698,-16.4528 3.93954,-0.7762 7.97408,-0.6114 11.79882,0.482 5.07245,1.45 9.60618,4.5258 12.86759,8.7297 3.85643,4.9709 5.68829,11.2171 5.13425,17.5065 -0.51865,5.8879 -3.0688,11.3317 -7.2679,15.5149 -4.11351,4.098 -9.46529,6.6152 -15.24901,7.1725 -0.96869,0.093 -2.68223,0.1344 -3.59218,0.086 z m 2.18654,-1.987 c 0.95883,-0.044 1.9618,-0.1468 2.79707,-0.2861 0.51283,-0.086 1.33155,-0.2543 1.35776,-0.2799 0.0127,-0.012 -5.90079,-5.1509 -13.14113,-11.4189 -7.2403298,-6.268 -13.1607898,-11.4053 -13.1565798,-11.4162 0.004,-0.011 1.91806,-1.7223 4.25298,-3.8031 2.3349098,-2.0808 4.2725298,-3.8082 4.3058198,-3.8385 l 0.0605,-0.055 0.5901,0.662 c 0.32456,0.3641 0.62109,0.6958 0.65896,0.7371 l 0.0689,0.075 -3.48135,3.104 c -2.7255898,2.4302 -3.4735898,3.1112 -3.4455598,3.1372 0.0197,0.018 5.0385698,4.3626 11.1530898,9.6542 6.11451,5.2915 11.30578,9.7853 11.53615,9.9862 l 0.41885,0.3651 0,-4.6228 0,-4.6229 -6.14615,-5.4804 c -3.38039,-3.0142 -6.14693,-5.4882 -6.14788,-5.4978 -9.5e-4,-0.01 2.76481,-2.4865 6.14615,-5.5042 l 6.14788,-5.4867 0,-5.4333 0,-5.4334 -0.19881,-0.045 c -0.10935,-0.025 -0.44478,-0.089 -0.74541,-0.1418 -3.41729,-0.6035 -6.9901,-0.4213 -10.31506,0.5259 -2.35625,0.6713 -4.55816,1.7005 -6.60223,3.0861 -2.08324,1.4121 -3.9789598,3.2181 -5.4913198,5.2314 -3.66381,4.8774 -5.2257,10.9297 -4.38957,17.0096 0.34163,2.4842 1.11262,4.9429 2.25733,7.1986 2.55977,5.0442 6.9192098,8.9996 12.1794998,11.0506 2.94122,1.1468 6.20776,1.6871 9.33003,1.5433 z m 6.47728,-1.2182 c 1.91016,-0.6476 3.75974,-1.573 5.47772,-2.7408 0.53392,-0.3629 0.94243,-0.6684 0.93183,-0.6968 -0.005,-0.013 -1.2804,-1.1582 -2.8344,-2.5445 -1.55401,-1.3862 -3.1098,-2.7747 -3.4573,-3.0854 l -0.63183,-0.5649 0,4.9 c 0,2.6949 0.004,4.8999 0.01,4.8999 0.005,0 0.23229,-0.075 0.50404,-0.1675 z m 8.60464,-5.3059 c 0.95805,-0.9407 1.64992,-1.7288 2.39996,-2.734 2.4706,-3.3109 4.00676,-7.2547 4.42401,-11.3579 0.15698,-1.5437 0.15715,-3.2193 4.8e-4,-4.7422 -0.5028,-4.8877 -2.54373,-9.4488 -5.86401,-13.1051 -0.46489,-0.5119 -1.37924,-1.41 -1.88572,-1.8522 l -0.39665,-0.3463 -0.0789,0.063 c -0.0434,0.034 -1.79723,1.5962 -3.8974,3.4704 l -3.81849,3.4076 -9.6e-4,10.111 -9.7e-4,10.111 4.23821,3.7818 c 2.33101,2.0801 4.24767,3.782 4.25923,3.7821 0.0116,0 0.2911,-0.2649 0.62118,-0.589 z m -11.11339,-21.239 -0.007,-4.1656 -4.64334,4.1443 c -2.55384,2.2793 -4.64951,4.1541 -4.65705,4.1663 -0.008,0.012 2.08195,1.8918 4.64333,4.1772 l 4.65706,4.1551 0.007,-4.1559 c 0.004,-2.2858 0.004,-6.0304 0,-8.3214 z m 5.1823,-11.448 c 1.636,-1.46 2.97455,-2.6639 2.97455,-2.6753 0,-0.026 -0.83648,-0.5752 -1.30624,-0.8573 -1.1262,-0.6763 -2.42892,-1.3056 -3.67737,-1.7764 -0.38715,-0.1461 -1.13193,-0.4034 -1.16734,-0.4034 -0.006,0 -0.0111,1.9245 -0.0111,4.2766 l 0,4.2767 0.10649,-0.093 c 0.0586,-0.051 1.44504,-1.2877 3.08104,-2.7477 z"
       id="path4235"
       inkscape:connector-curvature="0" />
  </g>
</svg>
