<?xml version="1.0" encoding="UTF-8" standalone="no"?>
<svg
   xmlns:dc="http://purl.org/dc/elements/1.1/"
   xmlns:cc="http://creativecommons.org/ns#"
   xmlns:rdf="http://www.w3.org/1999/02/22-rdf-syntax-ns#"
   xmlns:svg="http://www.w3.org/2000/svg"
   xmlns="http://www.w3.org/2000/svg"
   xmlns:sodipodi="http://sodipodi.sourceforge.net/DTD/sodipodi-0.dtd"
   xmlns:inkscape="http://www.inkscape.org/namespaces/inkscape"
   enable-background="new 0 0 48 48"
   height="32"
   id="Layer_1"
   version="1.1"
   viewBox="0 0 136.90199 32"
   width="136.90199"
   xml:space="preserve"
   inkscape:version="0.91 r13725"
   sodipodi:docname="sprite_social.svg"><metadata
     id="metadata3398"><rdf:RDF><cc:Work
         rdf:about=""><dc:format>image/svg+xml</dc:format><dc:type
           rdf:resource="http://purl.org/dc/dcmitype/StillImage" /><dc:title></dc:title></cc:Work></rdf:RDF></metadata><defs
     id="defs3396" /><sodipodi:namedview
     pagecolor="#ffffff"
     bordercolor="#666666"
     borderopacity="1"
     objecttolerance="10"
     gridtolerance="10"
     guidetolerance="10"
     inkscape:pageopacity="0"
     inkscape:pageshadow="2"
     inkscape:window-width="1280"
     inkscape:window-height="751"
     id="namedview3394"
     showgrid="false"
     inkscape:zoom="2.8645833"
     inkscape:cx="3.7724897"
     inkscape:cy="24"
     inkscape:window-x="0"
     inkscape:window-y="0"
     inkscape:window-maximized="1"
     inkscape:current-layer="Layer_1" /><g
     id="g3618"
     style="fill:#ffffff"
     transform="translate(91.789175,27.309074)"><g
       style="fill:#ffffff"
       transform="matrix(0.66666667,0,0,0.66666667,-21.854543,-27.309074)"
       id="g3388"><path
         style="fill:#ffffff"
         inkscape:connector-curvature="0"
         id="path3390"
         d="m 32.606,20.272 0,0 c -2.121,1.201 -4.903,2.513 -8.2,3.487 -0.682,0.173 -1.152,0.083 -1.377,0.008 -3.321,-1.388 -5.635,-2.497 -7.683,-3.667 -0.014,-0.007 -0.022,-0.01 -0.037,-0.018 -1.267,-0.699 -1.28,0 -1.28,0 l 0,8.098 c 0,1.105 0.896,2 2,2 l 15.341,0 c 1.104,0 2,-0.895 2,-2 l 0,-7.908 c 0,-0.462 -0.764,0 -0.764,0 z" /><path
         style="fill:#ffffff"
         inkscape:connector-curvature="0"
         id="path3392"
         d="M 24,0 C 10.745,0 0,10.745 0,24 0,37.254 10.745,48 24,48 37.255,48 48,37.254 48,24 48,10.745 37.255,0 24,0 Z m 13.21,31.424 c 0,1.104 -0.896,2 -2,2 l -22.42,0 c -1.104,0 -2,-0.896 -2,-2 l 0,-14.848 c 0,-1.104 0.896,-2 2,-2 l 22.42,0 c 1.104,0 2,0.896 2,2 l 0,14.848 z" /></g><path
       inkscape:connector-curvature="0"
       d="m -47.465546,-11.006141 c -0.0288,0 0.315733,0.729068 0.325333,0.729068 0.752,1.3418669 2.2016,2.1759999 4.646933,2.4074659 -0.3488,0.260266 -0.768,0.754134 -0.826133,1.324801 -0.438933,0.278933 -1.3216,0.3712 -2.007467,0.1584 -0.9616,-0.298134 -1.3296,-2.168535 -2.769066,-1.901868 -0.311467,0.05707 -0.2496,0.2592 0.01973,0.431467 0.438933,0.278933 0.851733,0.628266 1.170133,1.3712 0.2448,0.570667 0.758934,1.589866 2.3856,1.589866 0.645334,0 1.0976,-0.07627 1.0976,-0.07627 0,0 0.01227,1.456533 0.01227,2.022933 0,0.653334 -0.897067,0.837334 -0.897067,1.151467 0,0.124266 0.297067,0.136 0.535467,0.136 0.471467,0 1.452267,-0.386667 1.452267,-1.0656 0,-0.5392 0.0091,-2.352 0.0091,-2.669867 0,-0.693333 0.378134,-0.913066 0.378134,-0.913066 0,0 0.04693,3.701334 -0.09013,4.1984 -0.161066,0.583466 -0.451733,0.500799 -0.451733,0.761066 0,0.38719998 1.1808,0.09547 1.572267,-0.7552 0.3024,-0.6608 0.170133,-4.293333 0.170133,-4.293333 l 0.322667,-0.0064 c 0,0 0.01813,1.6624 0.0069,2.422401 -0.0112,0.7872 -0.0656,1.7824 0.410133,2.251733 0.312534,0.3088 1.3248,0.85013298 1.3248,0.3552 0,-0.287467 -0.554666,-0.523733 -0.554666,-1.301867 l 0,-3.581333 c 0.4432,0 0.376533,1.1776 0.376533,1.1776 l 0.03253,2.188267 c 0,0 -0.09813,0.7968 0.877334,1.130133 0.344,0.118933 1.08,0.150933 1.114666,-0.048 0.03467,-0.198933 -0.8864,-0.494933 -0.894933,-1.111467 -0.0053,-0.377066 0.01707,-0.5968 0.01707,-2.233066 0,-1.636267 -0.223467,-2.241067 -1.002667,-2.7232 2.404267,-0.242667 3.8928,-0.8272 4.617601,-2.3925339 0.05653,0.0016 0.296,-0.7312 0.264533,-0.7312 0.162667,-0.590933 0.250667,-1.290133 0.267734,-2.117866 -0.0043,-2.245334 -1.097601,-3.039467 -1.307201,-3.412267 0.309333,-1.699733 -0.05227,-2.473067 -0.219734,-2.738667 -0.619733,-0.216533 -2.1552,0.557334 -2.994666,1.1024 -1.367467,-0.393066 -4.2592,-0.3552 -5.343467,0.101334 -2.000533,-1.407467 -3.0592,-1.192 -3.0592,-1.192 0,0 -0.684267,1.2048 -0.1808,2.968 -0.658133,0.824533 -1.1488,1.408 -1.1488,2.954133 5.33e-4,0.871467 0.105067,1.6512 0.340267,2.331733 z m 6.643733,15.6970669 c -8.836267,0 -15.999999,-7.163733 -15.999999,-15.9999999 0,-8.8368 7.163732,-16 15.999999,-16 8.836268,0 16,7.1632 16,16 0,8.8362669 -7.163732,15.9999999 -16,15.9999999 z"
       style="clip-rule:evenodd;fill:#ffffff;fill-rule:evenodd"
       id="path3448" /><path
       inkscape:connector-curvature="0"
       d="m 35.066865,-4.7661741 2.722133,0 C 37.788998,-12.57044 31.4402,-18.923506 23.637,-18.923506 l 0,2.714666 c 6.300799,-5.33e-4 11.429865,5.133867 11.429865,11.4426659 z m -9.545598,0.0048 c 1.043733,0 1.886933,-0.8384 1.886933,-1.877866 0,-1.0336 -0.8432,-1.8816 -1.886933,-1.8816 -1.039467,0 -1.884267,0.848 -1.884267,1.8816 -5.34e-4,1.039466 0.844267,1.877866 1.884267,1.877866 z m 4.734399,-0.0037 0,0 2.725333,0 c 0,-5.154133 -4.193066,-9.3466659 -9.344533,-9.3466659 l 0,2.7136 c 1.766934,0 3.428801,0.690666 4.679467,1.9429329 1.250133,1.248 1.939733,2.9168 1.939733,4.690133 z m -1.142933,9.455999 c -8.836266,0 -15.999999,-7.163733 -15.999999,-15.9999989 0,-8.836799 7.163733,-15.999998 15.999999,-15.999998 8.836265,0 16,7.163199 16,15.999998 0,8.8362659 -7.163735,15.9999989 -16,15.9999989 z"
       style="clip-rule:evenodd;fill:#ffffff;fill-rule:evenodd"
       id="path3532" /><path
       inkscape:connector-curvature="0"
       d="m -73.566691,-17.558141 c -1.3968,0.508267 -2.27947,1.8192 -2.1792,3.253867 l 0.0336,0.5536 -0.55893,-0.06773 c -2.0336,-0.259734 -3.81067,-1.1408 -5.31947,-2.621333 l -0.7376,-0.734401 -0.18987,0.542401 c -0.40213,1.209066 -0.14506,2.485866 0.6928,3.344534 0.44694,0.474666 0.34614,0.5424 -0.42453,0.259733 -0.26827,-0.09013 -0.50293,-0.157868 -0.52533,-0.124268 -0.0779,0.07947 0.18986,1.1072 0.40213,1.514134 0.29067,0.565333 0.88267,1.1184 1.5312,1.4464 l 0.54773,0.2597329 -0.648,0.0112 c -0.6256,0 -0.648,0.0112 -0.5808,0.249067 0.22347,0.7344 1.10614,1.514133 2.0896,1.853333 l 0.6928,0.2368 -0.6032,0.3616 c -0.89386,0.520533 -1.94453,0.813867 -2.9952,0.835733 -0.50346,0.0112 -0.9168,0.05653 -0.9168,0.09067 0,0.112533 1.36374,0.745067 2.1568,0.994133 2.38027,0.7344 5.208,0.4176 7.3312,-0.836266 1.5088,-0.8928 3.01707,-2.666667 3.7216,-4.3845339 0.38027,-0.914666 0.76,-2.5872 0.76,-3.3888 0,-0.52 0.0336,-0.587733 0.6592,-1.209066 0.36907,-0.3616 0.7152,-0.7568 0.7824,-0.869867 0.112,-0.214933 0.10027,-0.214933 -0.46933,-0.02293 -0.94987,0.3392 -1.08427,0.293866 -0.6144,-0.2144 0.34613,-0.3616 0.76,-1.017067 0.76,-1.209067 0,-0.0336 -0.16747,0.0224 -0.35787,0.124267 -0.20106,0.113067 -0.648,0.282666 -0.98346,0.384 l -0.6032,0.192533 -0.54774,-0.373333 c -0.30186,-0.2032 -0.72586,-0.429334 -0.94986,-0.497067 -0.57014,-0.157867 -1.44214,-0.135467 -1.95627,0.04533 z m -2.2224,22.2490669 c -8.83627,0 -16,-7.163733 -16,-15.9999999 0,-8.8368 7.16373,-16 16,-16 8.83627,0 16,7.1632 16,16 0,8.8362669 -7.16373,15.9999999 -16,15.9999999 z"
       style="clip-rule:evenodd;fill:#ffffff;fill-rule:evenodd"
       id="path3607" /></g></svg>