<?xml version="1.0" encoding="UTF-8" standalone="no"?>
<!-- Created with Inkscape (http://www.inkscape.org/) -->

<svg
   xmlns:dc="http://purl.org/dc/elements/1.1/"
   xmlns:cc="http://creativecommons.org/ns#"
   xmlns:rdf="http://www.w3.org/1999/02/22-rdf-syntax-ns#"
   xmlns:svg="http://www.w3.org/2000/svg"
   xmlns="http://www.w3.org/2000/svg"
   xmlns:sodipodi="http://sodipodi.sourceforge.net/DTD/sodipodi-0.dtd"
   xmlns:inkscape="http://www.inkscape.org/namespaces/inkscape"
   width="800"
   height="540"
   viewBox="0 0 800.00001 540.00001"
   id="svg2"
   version="1.1"
   inkscape:version="0.91 r13725"
   sodipodi:docname="productive-cover.svg">
  <defs
     id="defs4" />
  <sodipodi:namedview
     id="base"
     pagecolor="#ffffff"
     bordercolor="#666666"
     borderopacity="1.0"
     inkscape:pageopacity="0.0"
     inkscape:pageshadow="2"
     inkscape:zoom="0.94999997"
     inkscape:cx="567.36844"
     inkscape:cy="384.21054"
     inkscape:document-units="px"
     inkscape:current-layer="layer1"
     showgrid="false"
     inkscape:window-width="1280"
     inkscape:window-height="751"
     inkscape:window-x="0"
     inkscape:window-y="0"
     inkscape:window-maximized="1"
     units="px" />
  <metadata
     id="metadata7">
    <rdf:RDF>
      <cc:Work
         rdf:about="">
        <dc:format>image/svg+xml</dc:format>
        <dc:type
           rdf:resource="http://purl.org/dc/dcmitype/StillImage" />
        <dc:title></dc:title>
      </cc:Work>
    </rdf:RDF>
  </metadata>
  <g
     inkscape:label="Layer 1"
     inkscape:groupmode="layer"
     id="layer1"
     transform="translate(0,-512.36216)">
    <rect
       style="fill:#04aaed;fill-opacity:0.9901962;stroke:#04aaed;stroke-width:5.12939835;stroke-linecap:round;stroke-linejoin:round;stroke-miterlimit:4;stroke-dasharray:none;stroke-opacity:0.9901962"
       id="rect4422"
       width="794.87054"
       height="534.87061"
       x="2.5647256"
       y="514.92688"
       ry="0"
       inkscape:export-filename="/Users/jrochelly/projects/my blog/assets/img/posts/productive-1.png"
       inkscape:export-xdpi="90"
       inkscape:export-ydpi="90" />
    <g
       id="g4552"
       transform="matrix(3.0498216,0,0,3.0498216,-4.39722,-1799.5171)">
      <g
         id="g4436"
         transform="matrix(0.52294178,0,0,0.52294178,94.815629,780.73083)"
         style="stroke:#0398d5;stroke-opacity:0.99215686">
        <path
           id="path4438"
           stroke-miterlimit="10"
           d="M 60.999115,60.55508 C 53.839596,59.018345 47.951858,53.62669 45.931355,46.352879 L 40,25"
           inkscape:connector-curvature="0"
           style="fill:none;stroke:#0398d5;stroke-width:4;stroke-linecap:round;stroke-linejoin:round;stroke-miterlimit:10;stroke-opacity:0.99215686" />
        <path
           id="path4440"
           stroke-miterlimit="10"
           d="M 73.000069,25 37,25 c -2.209141,0 -4,-1.790861 -4,-4 l 0,-4 c 0,-2.209139 1.790859,-4 4,-4 l 60,0 c 2.209137,0 4,1.790861 4,4 l 0,4 c 0,1.863691 -1.274567,3.429691 -2.999588,3.873877 L 94,25 88.068642,46.352879 c -1.98581,7.148937 -7.707215,12.479785 -14.700158,14.119655"
           inkscape:connector-curvature="0"
           style="fill:none;stroke:#0398d5;stroke-width:4;stroke-linecap:round;stroke-linejoin:round;stroke-miterlimit:10;stroke-opacity:0.99215686" />
        <line
           id="line4442"
           y2="25"
           y1="25"
           x2="82.000069"
           x1="85"
           stroke-miterlimit="10"
           style="fill:none;stroke:#0398d5;stroke-width:4;stroke-linecap:round;stroke-linejoin:round;stroke-miterlimit:10;stroke-opacity:0.99215686" />
        <path
           id="path4444"
           stroke-miterlimit="10"
           d="m 74.007996,65.688644 c 6.700729,1.807267 12.135711,7.02871 14.060646,13.958481 L 94,101"
           inkscape:connector-curvature="0"
           style="fill:none;stroke:#0398d5;stroke-width:4;stroke-linecap:round;stroke-linejoin:round;stroke-miterlimit:10;stroke-opacity:0.99215686" />
        <path
           id="path4446"
           stroke-miterlimit="10"
           d="m 40,101 5.931354,-21.352875 c 2.020611,-7.2742 7.908864,-12.666038 15.068902,-14.202446"
           inkscape:connector-curvature="0"
           style="fill:none;stroke:#0398d5;stroke-width:4;stroke-linecap:round;stroke-linejoin:round;stroke-miterlimit:10;stroke-opacity:0.99215686" />
        <path
           id="path4448"
           stroke-miterlimit="10"
           d="M 36.999931,101 97,101 c 2.209137,0 4,1.79086 4,4 l 0,4 c 0,2.20914 -1.790863,4 -4,4 l -60,0 c -2.209141,0 -4,-1.79086 -4,-4 l 0,-4 c 0,-1.86369 1.274571,-3.42969 2.999588,-3.87388 L 36.999931,101 Z"
           inkscape:connector-curvature="0"
           style="fill:none;stroke:#0398d5;stroke-width:4;stroke-linecap:round;stroke-linejoin:round;stroke-miterlimit:10;stroke-opacity:0.99215686" />
        <line
           id="line4450"
           y2="57"
           y1="71"
           x2="61"
           x1="61"
           stroke-miterlimit="10"
           style="fill:none;stroke:#0398d5;stroke-width:4;stroke-linecap:round;stroke-linejoin:round;stroke-miterlimit:10;stroke-opacity:0.99215686" />
        <line
           id="line4452"
           y2="67"
           y1="54"
           x2="73"
           x1="73"
           stroke-miterlimit="10"
           style="fill:none;stroke:#0398d5;stroke-width:4;stroke-linecap:round;stroke-linejoin:round;stroke-miterlimit:10;stroke-opacity:0.99215686" />
      </g>
      <g
         style="stroke:#ffffff"
         transform="matrix(0.52294178,0,0,0.52294178,95.861512,781.77671)"
         id="g4412">
        <path
           style="fill:none;stroke:#ffffff;stroke-width:4;stroke-linecap:round;stroke-linejoin:round;stroke-miterlimit:10"
           inkscape:connector-curvature="0"
           d="M 60.999115,60.55508 C 53.839596,59.018345 47.951858,53.62669 45.931355,46.352879 L 40,25"
           stroke-miterlimit="10"
           id="path4390" />
        <path
           style="fill:none;stroke:#ffffff;stroke-width:4;stroke-linecap:round;stroke-linejoin:round;stroke-miterlimit:10"
           inkscape:connector-curvature="0"
           d="M 73.000069,25 37,25 c -2.209141,0 -4,-1.790861 -4,-4 l 0,-4 c 0,-2.209139 1.790859,-4 4,-4 l 60,0 c 2.209137,0 4,1.790861 4,4 l 0,4 c 0,1.863691 -1.274567,3.429691 -2.999588,3.873877 L 94,25 88.068642,46.352879 c -1.98581,7.148937 -7.707215,12.479785 -14.700158,14.119655"
           stroke-miterlimit="10"
           id="path4392" />
        <line
           style="fill:none;stroke:#ffffff;stroke-width:4;stroke-linecap:round;stroke-linejoin:round;stroke-miterlimit:10"
           stroke-miterlimit="10"
           x1="85"
           x2="82.000069"
           y1="25"
           y2="25"
           id="line4394" />
        <path
           style="fill:none;stroke:#ffffff;stroke-width:4;stroke-linecap:round;stroke-linejoin:round;stroke-miterlimit:10"
           inkscape:connector-curvature="0"
           d="m 74.007996,65.688644 c 6.700729,1.807267 12.135711,7.02871 14.060646,13.958481 L 94,101"
           stroke-miterlimit="10"
           id="path4396" />
        <path
           style="fill:none;stroke:#ffffff;stroke-width:4;stroke-linecap:round;stroke-linejoin:round;stroke-miterlimit:10"
           inkscape:connector-curvature="0"
           d="m 40,101 5.931354,-21.352875 c 2.020611,-7.2742 7.908864,-12.666038 15.068902,-14.202446"
           stroke-miterlimit="10"
           id="path4398" />
        <path
           style="fill:none;stroke:#ffffff;stroke-width:4;stroke-linecap:round;stroke-linejoin:round;stroke-miterlimit:10"
           inkscape:connector-curvature="0"
           d="M 36.999931,101 97,101 c 2.209137,0 4,1.79086 4,4 l 0,4 c 0,2.20914 -1.790863,4 -4,4 l -60,0 c -2.209141,0 -4,-1.79086 -4,-4 l 0,-4 c 0,-1.86369 1.274571,-3.42969 2.999588,-3.87388 L 36.999931,101 Z"
           stroke-miterlimit="10"
           id="path4400" />
        <line
           style="fill:none;stroke:#ffffff;stroke-width:4;stroke-linecap:round;stroke-linejoin:round;stroke-miterlimit:10"
           stroke-miterlimit="10"
           x1="61"
           x2="61"
           y1="71"
           y2="57"
           id="line4402" />
        <line
           style="fill:none;stroke:#ffffff;stroke-width:4;stroke-linecap:round;stroke-linejoin:round;stroke-miterlimit:10"
           stroke-miterlimit="10"
           x1="73"
           x2="73"
           y1="54"
           y2="67"
           id="line4404" />
      </g>
    </g>
    <g
       id="g4574"
       transform="matrix(1.5080335,-0.51910918,0.51910918,1.5080335,10.2161,827.76836)"
       style="stroke:#03a3e5;stroke-opacity:0.99215686">
      <path
         id="path4576"
         stroke-miterlimit="10"
         d="M 60.999115,60.55508 C 53.839596,59.018345 47.951858,53.62669 45.931355,46.352879 L 40,25"
         inkscape:connector-curvature="0"
         style="fill:none;stroke:#03a3e5;stroke-width:4;stroke-linecap:round;stroke-linejoin:round;stroke-miterlimit:10;stroke-opacity:0.99215686" />
      <path
         id="path4578"
         stroke-miterlimit="10"
         d="M 73.000069,25 37,25 c -2.209141,0 -4,-1.790861 -4,-4 l 0,-4 c 0,-2.209139 1.790859,-4 4,-4 l 60,0 c 2.209137,0 4,1.790861 4,4 l 0,4 c 0,1.863691 -1.274567,3.429691 -2.999588,3.873877 L 94,25 88.068642,46.352879 c -1.98581,7.148937 -7.707215,12.479785 -14.700158,14.119655"
         inkscape:connector-curvature="0"
         style="fill:none;stroke:#03a3e5;stroke-width:4;stroke-linecap:round;stroke-linejoin:round;stroke-miterlimit:10;stroke-opacity:0.99215686" />
      <line
         id="line4580"
         y2="25"
         y1="25"
         x2="82.000069"
         x1="85"
         stroke-miterlimit="10"
         style="fill:none;stroke:#03a3e5;stroke-width:4;stroke-linecap:round;stroke-linejoin:round;stroke-miterlimit:10;stroke-opacity:0.99215686" />
      <path
         id="path4582"
         stroke-miterlimit="10"
         d="m 74.007996,65.688644 c 6.700729,1.807267 12.135711,7.02871 14.060646,13.958481 L 94,101"
         inkscape:connector-curvature="0"
         style="fill:none;stroke:#03a3e5;stroke-width:4;stroke-linecap:round;stroke-linejoin:round;stroke-miterlimit:10;stroke-opacity:0.99215686" />
      <path
         id="path4584"
         stroke-miterlimit="10"
         d="m 40,101 5.931354,-21.352875 c 2.020611,-7.2742 7.908864,-12.666038 15.068902,-14.202446"
         inkscape:connector-curvature="0"
         style="fill:none;stroke:#03a3e5;stroke-width:4;stroke-linecap:round;stroke-linejoin:round;stroke-miterlimit:10;stroke-opacity:0.99215686" />
      <path
         id="path4586"
         stroke-miterlimit="10"
         d="M 36.999931,101 97,101 c 2.209137,0 4,1.79086 4,4 l 0,4 c 0,2.20914 -1.790863,4 -4,4 l -60,0 c -2.209141,0 -4,-1.79086 -4,-4 l 0,-4 c 0,-1.86369 1.274571,-3.42969 2.999588,-3.87388 L 36.999931,101 Z"
         inkscape:connector-curvature="0"
         style="fill:none;stroke:#03a3e5;stroke-width:4;stroke-linecap:round;stroke-linejoin:round;stroke-miterlimit:10;stroke-opacity:0.99215686" />
      <line
         id="line4588"
         y2="57"
         y1="71"
         x2="61"
         x1="61"
         stroke-miterlimit="10"
         style="fill:none;stroke:#03a3e5;stroke-width:4;stroke-linecap:round;stroke-linejoin:round;stroke-miterlimit:10;stroke-opacity:0.99215686" />
      <line
         id="line4590"
         y2="67"
         y1="54"
         x2="73"
         x1="73"
         stroke-miterlimit="10"
         style="fill:none;stroke:#03a3e5;stroke-width:4;stroke-linecap:round;stroke-linejoin:round;stroke-miterlimit:10;stroke-opacity:0.99215686" />
    </g>
    <g
       style="stroke:#03a3e5;stroke-opacity:0.99215686"
       transform="matrix(1.1217384,-0.38613513,0.38613513,1.1217384,439.58973,483.79164)"
       id="g4628">
      <path
         style="fill:none;stroke:#03a3e5;stroke-width:4;stroke-linecap:round;stroke-linejoin:round;stroke-miterlimit:10;stroke-opacity:0.99215686"
         inkscape:connector-curvature="0"
         d="M 60.999115,60.55508 C 53.839596,59.018345 47.951858,53.62669 45.931355,46.352879 L 40,25"
         stroke-miterlimit="10"
         id="path4630" />
      <path
         style="fill:none;stroke:#03a3e5;stroke-width:4;stroke-linecap:round;stroke-linejoin:round;stroke-miterlimit:10;stroke-opacity:0.99215686"
         inkscape:connector-curvature="0"
         d="M 73.000069,25 37,25 c -2.209141,0 -4,-1.790861 -4,-4 l 0,-4 c 0,-2.209139 1.790859,-4 4,-4 l 60,0 c 2.209137,0 4,1.790861 4,4 l 0,4 c 0,1.863691 -1.274567,3.429691 -2.999588,3.873877 L 94,25 88.068642,46.352879 c -1.98581,7.148937 -7.707215,12.479785 -14.700158,14.119655"
         stroke-miterlimit="10"
         id="path4632" />
      <line
         style="fill:none;stroke:#03a3e5;stroke-width:4;stroke-linecap:round;stroke-linejoin:round;stroke-miterlimit:10;stroke-opacity:0.99215686"
         stroke-miterlimit="10"
         x1="85"
         x2="82.000069"
         y1="25"
         y2="25"
         id="line4634" />
      <path
         style="fill:none;stroke:#03a3e5;stroke-width:4;stroke-linecap:round;stroke-linejoin:round;stroke-miterlimit:10;stroke-opacity:0.99215686"
         inkscape:connector-curvature="0"
         d="m 74.007996,65.688644 c 6.700729,1.807267 12.135711,7.02871 14.060646,13.958481 L 94,101"
         stroke-miterlimit="10"
         id="path4636" />
      <path
         style="fill:none;stroke:#03a3e5;stroke-width:4;stroke-linecap:round;stroke-linejoin:round;stroke-miterlimit:10;stroke-opacity:0.99215686"
         inkscape:connector-curvature="0"
         d="m 40,101 5.931354,-21.352875 c 2.020611,-7.2742 7.908864,-12.666038 15.068902,-14.202446"
         stroke-miterlimit="10"
         id="path4638" />
      <path
         style="fill:none;stroke:#03a3e5;stroke-width:4;stroke-linecap:round;stroke-linejoin:round;stroke-miterlimit:10;stroke-opacity:0.99215686"
         inkscape:connector-curvature="0"
         d="M 36.999931,101 97,101 c 2.209137,0 4,1.79086 4,4 l 0,4 c 0,2.20914 -1.790863,4 -4,4 l -60,0 c -2.209141,0 -4,-1.79086 -4,-4 l 0,-4 c 0,-1.86369 1.274571,-3.42969 2.999588,-3.87388 L 36.999931,101 Z"
         stroke-miterlimit="10"
         id="path4640" />
      <line
         style="fill:none;stroke:#03a3e5;stroke-width:4;stroke-linecap:round;stroke-linejoin:round;stroke-miterlimit:10;stroke-opacity:0.99215686"
         stroke-miterlimit="10"
         x1="61"
         x2="61"
         y1="71"
         y2="57"
         id="line4642" />
      <line
         style="fill:none;stroke:#03a3e5;stroke-width:4;stroke-linecap:round;stroke-linejoin:round;stroke-miterlimit:10;stroke-opacity:0.99215686"
         stroke-miterlimit="10"
         x1="73"
         x2="73"
         y1="54"
         y2="67"
         id="line4644" />
    </g>
    <g
       id="g4698"
       transform="matrix(5.4227182,0,0,5.4227182,594.22043,830.21881)"
       style="fill:#016a95;fill-opacity:1">
      <g
         id="g4700"
         style="fill:#016a95;fill-opacity:1">
        <path
           id="path4702"
           d="M 12,0 C 5.375,0 0.003,5.373 0.003,12 0.003,18.627 5.375,24 12,24 18.626,24 23.997,18.627 23.997,12 23.997,5.373 18.626,0 12,0 Z m 4.412,16.709 -0.35,0.35 c -0.291,0.291 -0.782,0.305 -1.088,0.029 l -4.52,-3.955 C 10.146,12.858 9.913,12.295 9.933,11.883 L 10.352,4.749 C 10.374,4.336 10.729,4 11.142,4 l 0.493,0 c 0.413,0 0.767,0.336 0.787,0.748 l 0.343,5.934 c 0.021,0.413 0.262,1 0.535,1.309 l 3.144,3.628 c 0.273,0.309 0.26,0.799 -0.032,1.09 z"
           inkscape:connector-curvature="0"
           style="clip-rule:evenodd;fill:#016a95;fill-opacity:1;fill-rule:evenodd" />
      </g>
    </g>
    <g
       style="fill:#02a3e6;fill-opacity:1"
       transform="matrix(2.0841217,-1.2032682,1.2032682,2.0841217,192.19062,659.93627)"
       id="g4713">
      <g
         style="fill:#02a3e6;fill-opacity:1"
         id="g4715">
        <path
           style="clip-rule:evenodd;fill:#02a3e6;fill-opacity:1;fill-rule:evenodd"
           inkscape:connector-curvature="0"
           d="M 12,0 C 5.375,0 0.003,5.373 0.003,12 0.003,18.627 5.375,24 12,24 18.626,24 23.997,18.627 23.997,12 23.997,5.373 18.626,0 12,0 Z m 4.412,16.709 -0.35,0.35 c -0.291,0.291 -0.782,0.305 -1.088,0.029 l -4.52,-3.955 C 10.146,12.858 9.913,12.295 9.933,11.883 L 10.352,4.749 C 10.374,4.336 10.729,4 11.142,4 l 0.493,0 c 0.413,0 0.767,0.336 0.787,0.748 l 0.343,5.934 c 0.021,0.413 0.262,1 0.535,1.309 l 3.144,3.628 c 0.273,0.309 0.26,0.799 -0.032,1.09 z"
           id="path4717" />
      </g>
    </g>
    <g
       id="g4719"
       transform="matrix(-2.0841217,1.2032682,-1.2032682,-2.0841217,594.93103,729.65262)"
       style="fill:#02a3e6;fill-opacity:1">
      <g
         id="g4721"
         style="fill:#02a3e6;fill-opacity:1">
        <path
           id="path4723"
           d="M 12,0 C 5.375,0 0.003,5.373 0.003,12 0.003,18.627 5.375,24 12,24 18.626,24 23.997,18.627 23.997,12 23.997,5.373 18.626,0 12,0 Z m 4.412,16.709 -0.35,0.35 c -0.291,0.291 -0.782,0.305 -1.088,0.029 l -4.52,-3.955 C 10.146,12.858 9.913,12.295 9.933,11.883 L 10.352,4.749 C 10.374,4.336 10.729,4 11.142,4 l 0.493,0 c 0.413,0 0.767,0.336 0.787,0.748 l 0.343,5.934 c 0.021,0.413 0.262,1 0.535,1.309 l 3.144,3.628 c 0.273,0.309 0.26,0.799 -0.032,1.09 z"
           inkscape:connector-curvature="0"
           style="clip-rule:evenodd;fill:#02a3e6;fill-opacity:1;fill-rule:evenodd" />
      </g>
    </g>
    <g
       id="g4725"
       transform="matrix(2.0841217,-1.2032682,1.2032682,2.0841217,277.91373,859.95675)"
       style="fill:#02a3e6;fill-opacity:1">
      <g
         id="g4727"
         style="fill:#02a3e6;fill-opacity:1">
        <path
           id="path4729"
           d="M 12,0 C 5.375,0 0.003,5.373 0.003,12 0.003,18.627 5.375,24 12,24 18.626,24 23.997,18.627 23.997,12 23.997,5.373 18.626,0 12,0 Z m 4.412,16.709 -0.35,0.35 c -0.291,0.291 -0.782,0.305 -1.088,0.029 l -4.52,-3.955 C 10.146,12.858 9.913,12.295 9.933,11.883 L 10.352,4.749 C 10.374,4.336 10.729,4 11.142,4 l 0.493,0 c 0.413,0 0.767,0.336 0.787,0.748 l 0.343,5.934 c 0.021,0.413 0.262,1 0.535,1.309 l 3.144,3.628 c 0.273,0.309 0.26,0.799 -0.032,1.09 z"
           inkscape:connector-curvature="0"
           style="clip-rule:evenodd;fill:#02a3e6;fill-opacity:1;fill-rule:evenodd" />
      </g>
    </g>
  </g>
</svg>
